<?xml version="1.0" standalone="no"?>
<!DOCTYPE svg PUBLIC "-//W3C//DTD SVG 20010904//EN"
 "http://www.w3.org/TR/2001/REC-SVG-20010904/DTD/svg10.dtd">
<svg version="1.0" xmlns="http://www.w3.org/2000/svg"
 width="1326.000000pt" height="1326.000000pt" viewBox="0 0 1326.000000 1326.000000"
 preserveAspectRatio="xMidYMid meet">

<g transform="translate(0.000000,1326.000000) scale(0.100000,-0.100000)"
fill="#000000" stroke="none">
<path d="M4515 8964 c-154 -19 -345 -66 -450 -113 -109 -49 -152 -71 -225
-115 -248 -149 -447 -349 -589 -590 -132 -225 -197 -423 -228 -699 -16 -149
-16 -164 0 -318 30 -277 93 -471 230 -709 265 -459 796 -790 1315 -817 76 -4
112 -10 112 -18 0 -6 -78 -324 -174 -706 -95 -382 -172 -696 -170 -698 7 -8
121 76 227 167 177 153 395 377 640 661 45 51 298 374 342 436 22 31 45 61 50
68 22 27 64 88 155 227 127 192 145 220 241 390 45 80 110 195 145 255 124
218 183 365 226 565 20 92 23 134 23 335 0 259 -13 346 -81 545 -92 266 -223
470 -435 675 -275 265 -599 415 -991 460 -161 18 -203 18 -363 -1z"/>
<path d="M8440 8960 c-214 -29 -355 -72 -536 -161 -459 -226 -788 -646 -903
-1154 -61 -268 -43 -615 45 -885 166 -507 571 -914 1077 -1080 129 -42 274
-71 395 -77 56 -3 105 -10 108 -14 3 -5 -2 -37 -12 -71 -16 -61 -22 -87 -63
-253 -21 -84 -66 -267 -183 -730 -89 -357 -89 -357 -86 -361 5 -4 144 102 241
183 147 125 384 369 619 640 198 228 508 654 683 938 73 117 71 114 165 285
35 63 80 142 100 175 127 206 214 453 240 683 58 511 -105 1004 -452 1368
-289 301 -632 471 -1048 519 -167 19 -219 18 -390 -5z"/>
</g>
</svg>
